<mxfile host="app.diagrams.net" modified="2024-01-28T23:50:04.705Z" agent="Mozilla/5.0 (Macintosh; Intel Mac OS X 10_15_7) AppleWebKit/605.1.15 (KHTML, like Gecko) Version/17.2.1 Safari/605.1.15" etag="VkcCrMWhhQIeia10yJ6h" version="23.0.2" type="github">
  <diagram name="Page-1" id="ibN5uEJDEitdcNZKuq6F">
    <mxGraphModel dx="1194" dy="718" grid="1" gridSize="10" guides="1" tooltips="1" connect="1" arrows="1" fold="1" page="1" pageScale="1" pageWidth="850" pageHeight="1100" math="0" shadow="0">
      <root>
        <mxCell id="0" />
        <mxCell id="1" parent="0" />
        <mxCell id="0LvWJx0RIJ58dRhAGcR3-28" value="" style="ellipse;whiteSpace=wrap;html=1;fillStyle=hatch;shadow=0;dashed=1;strokeColor=#CC6600;fillColor=none;backgroundOutline=0;" vertex="1" parent="1">
          <mxGeometry x="70" y="300" width="710" height="450" as="geometry" />
        </mxCell>
        <mxCell id="dUsebAUgYld1Ic8YeYVZ-1" value="Database" style="shape=cylinder3;whiteSpace=wrap;html=1;boundedLbl=1;backgroundOutline=1;size=15;fillColor=#ffe6cc;strokeColor=#d79b00;gradientColor=none;" parent="1" vertex="1">
          <mxGeometry x="345" y="493" width="140" height="80" as="geometry" />
        </mxCell>
        <mxCell id="dUsebAUgYld1Ic8YeYVZ-2" value="log In" style="ellipse;whiteSpace=wrap;html=1;strokeColor=#00FF00;" parent="1" vertex="1">
          <mxGeometry x="150" y="403" width="90" height="50" as="geometry" />
        </mxCell>
        <mxCell id="dUsebAUgYld1Ic8YeYVZ-3" value="" style="endArrow=classic;html=1;rounded=0;entryX=0.944;entryY=0.8;entryDx=0;entryDy=0;entryPerimeter=0;exitX=0;exitY=0.5;exitDx=0;exitDy=0;exitPerimeter=0;curved=0;strokeColor=#007FFF;" parent="1" source="dUsebAUgYld1Ic8YeYVZ-1" target="dUsebAUgYld1Ic8YeYVZ-2" edge="1">
          <mxGeometry width="50" height="50" relative="1" as="geometry">
            <mxPoint x="390" y="683" as="sourcePoint" />
            <mxPoint x="300" y="483" as="targetPoint" />
          </mxGeometry>
        </mxCell>
        <mxCell id="0LvWJx0RIJ58dRhAGcR3-2" value="Register" style="ellipse;whiteSpace=wrap;html=1;strokeColor=#00FF00;" vertex="1" parent="1">
          <mxGeometry x="290" y="353" width="90" height="50" as="geometry" />
        </mxCell>
        <mxCell id="0LvWJx0RIJ58dRhAGcR3-3" value="Sell Items" style="ellipse;whiteSpace=wrap;html=1;strokeColor=#00FF00;" vertex="1" parent="1">
          <mxGeometry x="470" y="353" width="90" height="50" as="geometry" />
        </mxCell>
        <mxCell id="0LvWJx0RIJ58dRhAGcR3-4" value="Search Items" style="ellipse;whiteSpace=wrap;html=1;strokeColor=#00FF00;" vertex="1" parent="1">
          <mxGeometry x="620" y="413" width="90" height="50" as="geometry" />
        </mxCell>
        <mxCell id="0LvWJx0RIJ58dRhAGcR3-5" value="View Ratings" style="ellipse;whiteSpace=wrap;html=1;strokeColor=#00FF00;" vertex="1" parent="1">
          <mxGeometry x="630" y="508" width="90" height="50" as="geometry" />
        </mxCell>
        <mxCell id="0LvWJx0RIJ58dRhAGcR3-6" value="View Auction &lt;br&gt;Results" style="ellipse;whiteSpace=wrap;html=1;strokeColor=#00FF00;" vertex="1" parent="1">
          <mxGeometry x="600" y="583" width="90" height="50" as="geometry" />
        </mxCell>
        <mxCell id="0LvWJx0RIJ58dRhAGcR3-7" value="View Category Report" style="ellipse;whiteSpace=wrap;html=1;strokeColor=#00FF00;" vertex="1" parent="1">
          <mxGeometry x="490" y="643" width="100" height="50" as="geometry" />
        </mxCell>
        <mxCell id="0LvWJx0RIJ58dRhAGcR3-8" value="View User Report" style="ellipse;whiteSpace=wrap;html=1;strokeColor=#00FF00;" vertex="1" parent="1">
          <mxGeometry x="370" y="653" width="90" height="50" as="geometry" />
        </mxCell>
        <mxCell id="0LvWJx0RIJ58dRhAGcR3-9" value="View Auction Statistics" style="ellipse;whiteSpace=wrap;html=1;strokeColor=#00FF00;" vertex="1" parent="1">
          <mxGeometry x="240" y="633" width="90" height="50" as="geometry" />
        </mxCell>
        <mxCell id="0LvWJx0RIJ58dRhAGcR3-10" value="View Cancelled Auction Details" style="ellipse;whiteSpace=wrap;html=1;strokeColor=#00FF00;" vertex="1" parent="1">
          <mxGeometry x="130" y="563" width="100" height="50" as="geometry" />
        </mxCell>
        <mxCell id="0LvWJx0RIJ58dRhAGcR3-12" value="" style="endArrow=classic;html=1;rounded=0;strokeColor=#007FFF;entryX=0.35;entryY=-0.062;entryDx=0;entryDy=0;entryPerimeter=0;" edge="1" parent="1" source="0LvWJx0RIJ58dRhAGcR3-2">
          <mxGeometry width="50" height="50" relative="1" as="geometry">
            <mxPoint x="361" y="407.96000000000004" as="sourcePoint" />
            <mxPoint x="400" y="493" as="targetPoint" />
            <Array as="points" />
          </mxGeometry>
        </mxCell>
        <mxCell id="0LvWJx0RIJ58dRhAGcR3-13" value="" style="endArrow=classic;html=1;rounded=0;exitX=0.5;exitY=1;exitDx=0;exitDy=0;curved=0;strokeColor=#007FFF;entryX=0.855;entryY=0;entryDx=0;entryDy=4.35;entryPerimeter=0;" edge="1" parent="1" source="0LvWJx0RIJ58dRhAGcR3-3" target="dUsebAUgYld1Ic8YeYVZ-1">
          <mxGeometry width="50" height="50" relative="1" as="geometry">
            <mxPoint x="580" y="508" as="sourcePoint" />
            <mxPoint x="455" y="491" as="targetPoint" />
          </mxGeometry>
        </mxCell>
        <mxCell id="0LvWJx0RIJ58dRhAGcR3-14" value="" style="endArrow=classic;startArrow=classic;html=1;rounded=0;strokeColor=#007FFF;" edge="1" parent="1" source="dUsebAUgYld1Ic8YeYVZ-1" target="0LvWJx0RIJ58dRhAGcR3-4">
          <mxGeometry width="50" height="50" relative="1" as="geometry">
            <mxPoint x="330" y="643" as="sourcePoint" />
            <mxPoint x="380" y="593" as="targetPoint" />
            <Array as="points" />
          </mxGeometry>
        </mxCell>
        <mxCell id="0LvWJx0RIJ58dRhAGcR3-15" value="" style="endArrow=classic;startArrow=classic;html=1;rounded=0;strokeColor=#007FFF;" edge="1" parent="1" source="dUsebAUgYld1Ic8YeYVZ-1" target="0LvWJx0RIJ58dRhAGcR3-5">
          <mxGeometry width="50" height="50" relative="1" as="geometry">
            <mxPoint x="485" y="583" as="sourcePoint" />
            <mxPoint x="628" y="529" as="targetPoint" />
            <Array as="points" />
          </mxGeometry>
        </mxCell>
        <mxCell id="0LvWJx0RIJ58dRhAGcR3-16" value="" style="endArrow=classic;html=1;rounded=0;exitX=0.929;exitY=0.925;exitDx=0;exitDy=0;exitPerimeter=0;strokeColor=#007FFF;" edge="1" parent="1" source="dUsebAUgYld1Ic8YeYVZ-1" target="0LvWJx0RIJ58dRhAGcR3-6">
          <mxGeometry width="50" height="50" relative="1" as="geometry">
            <mxPoint x="330" y="643" as="sourcePoint" />
            <mxPoint x="490" y="608" as="targetPoint" />
          </mxGeometry>
        </mxCell>
        <mxCell id="0LvWJx0RIJ58dRhAGcR3-17" value="" style="endArrow=classic;html=1;rounded=0;exitX=0.75;exitY=1;exitDx=0;exitDy=0;exitPerimeter=0;strokeColor=#007FFF;entryX=0.4;entryY=0;entryDx=0;entryDy=0;entryPerimeter=0;" edge="1" parent="1" source="dUsebAUgYld1Ic8YeYVZ-1" target="0LvWJx0RIJ58dRhAGcR3-7">
          <mxGeometry width="50" height="50" relative="1" as="geometry">
            <mxPoint x="461" y="592.5" as="sourcePoint" />
            <mxPoint x="590" y="623.5" as="targetPoint" />
          </mxGeometry>
        </mxCell>
        <mxCell id="0LvWJx0RIJ58dRhAGcR3-18" value="" style="endArrow=classic;html=1;rounded=0;strokeColor=#007FFF;entryX=0.5;entryY=0;entryDx=0;entryDy=0;" edge="1" parent="1" source="dUsebAUgYld1Ic8YeYVZ-1" target="0LvWJx0RIJ58dRhAGcR3-8">
          <mxGeometry width="50" height="50" relative="1" as="geometry">
            <mxPoint x="495" y="587" as="sourcePoint" />
            <mxPoint x="624" y="618" as="targetPoint" />
          </mxGeometry>
        </mxCell>
        <mxCell id="0LvWJx0RIJ58dRhAGcR3-20" value="" style="endArrow=classic;html=1;rounded=0;strokeColor=#007FFF;entryX=1;entryY=0.5;entryDx=0;entryDy=0;" edge="1" parent="1" source="dUsebAUgYld1Ic8YeYVZ-1" target="0LvWJx0RIJ58dRhAGcR3-10">
          <mxGeometry width="50" height="50" relative="1" as="geometry">
            <mxPoint x="387" y="581" as="sourcePoint" />
            <mxPoint x="318" y="646" as="targetPoint" />
          </mxGeometry>
        </mxCell>
        <mxCell id="0LvWJx0RIJ58dRhAGcR3-27" value="" style="endArrow=classic;html=1;rounded=0;strokeColor=#007FFF;exitX=0.229;exitY=0.975;exitDx=0;exitDy=0;exitPerimeter=0;" edge="1" parent="1" source="dUsebAUgYld1Ic8YeYVZ-1" target="0LvWJx0RIJ58dRhAGcR3-9">
          <mxGeometry width="50" height="50" relative="1" as="geometry">
            <mxPoint x="377" y="571" as="sourcePoint" />
            <mxPoint x="308" y="636" as="targetPoint" />
          </mxGeometry>
        </mxCell>
        <mxCell id="0LvWJx0RIJ58dRhAGcR3-29" value="Log In Form" style="rounded=0;whiteSpace=wrap;html=1;fillColor=#eeeeee;strokeColor=#36393d;" vertex="1" parent="1">
          <mxGeometry x="40" y="260" width="100" height="50" as="geometry" />
        </mxCell>
        <mxCell id="0LvWJx0RIJ58dRhAGcR3-30" value="" style="endArrow=classic;html=1;rounded=0;exitX=0.5;exitY=1;exitDx=0;exitDy=0;strokeColor=#007FFF;" edge="1" parent="1" source="0LvWJx0RIJ58dRhAGcR3-29" target="dUsebAUgYld1Ic8YeYVZ-2">
          <mxGeometry width="50" height="50" relative="1" as="geometry">
            <mxPoint x="83" y="403" as="sourcePoint" />
            <mxPoint x="240" y="280" as="targetPoint" />
          </mxGeometry>
        </mxCell>
        <mxCell id="0LvWJx0RIJ58dRhAGcR3-32" value="Registration Form" style="rounded=0;whiteSpace=wrap;html=1;fillColor=#eeeeee;strokeColor=#36393d;" vertex="1" parent="1">
          <mxGeometry x="280" y="207" width="110" height="50" as="geometry" />
        </mxCell>
        <mxCell id="0LvWJx0RIJ58dRhAGcR3-33" value="" style="endArrow=classic;html=1;rounded=0;exitX=0.5;exitY=1;exitDx=0;exitDy=0;strokeColor=#007FFF;" edge="1" parent="1" source="0LvWJx0RIJ58dRhAGcR3-32" target="0LvWJx0RIJ58dRhAGcR3-2">
          <mxGeometry width="50" height="50" relative="1" as="geometry">
            <mxPoint x="323" y="350" as="sourcePoint" />
            <mxPoint x="415" y="353" as="targetPoint" />
          </mxGeometry>
        </mxCell>
        <mxCell id="0LvWJx0RIJ58dRhAGcR3-34" value="New Item Form" style="rounded=0;whiteSpace=wrap;html=1;fillColor=#eeeeee;strokeColor=#36393d;" vertex="1" parent="1">
          <mxGeometry x="520" y="210" width="110" height="50" as="geometry" />
        </mxCell>
        <mxCell id="0LvWJx0RIJ58dRhAGcR3-35" value="" style="endArrow=classic;html=1;rounded=0;exitX=0.5;exitY=1;exitDx=0;exitDy=0;strokeColor=#007FFF;" edge="1" parent="1" source="0LvWJx0RIJ58dRhAGcR3-34" target="0LvWJx0RIJ58dRhAGcR3-3">
          <mxGeometry width="50" height="50" relative="1" as="geometry">
            <mxPoint x="513" y="355" as="sourcePoint" />
            <mxPoint x="525" y="350" as="targetPoint" />
          </mxGeometry>
        </mxCell>
        <mxCell id="0LvWJx0RIJ58dRhAGcR3-36" value="Item Search Form" style="rounded=0;whiteSpace=wrap;html=1;fillColor=#eeeeee;strokeColor=#36393d;" vertex="1" parent="1">
          <mxGeometry x="680" y="269" width="110" height="50" as="geometry" />
        </mxCell>
        <mxCell id="0LvWJx0RIJ58dRhAGcR3-37" value="" style="endArrow=classic;html=1;rounded=0;exitX=0.5;exitY=1;exitDx=0;exitDy=0;strokeColor=#007FFF;" edge="1" parent="1" source="0LvWJx0RIJ58dRhAGcR3-36" target="0LvWJx0RIJ58dRhAGcR3-4">
          <mxGeometry width="50" height="50" relative="1" as="geometry">
            <mxPoint x="673" y="414" as="sourcePoint" />
            <mxPoint x="687" y="413" as="targetPoint" />
          </mxGeometry>
        </mxCell>
      </root>
    </mxGraphModel>
  </diagram>
</mxfile>
